<?xml version="1.0" encoding="UTF-8"?>
<svg id="Camada_2" data-name="Camada 2" xmlns="http://www.w3.org/2000/svg" xmlns:xlink="http://www.w3.org/1999/xlink" viewBox="0 0 867.15 144.56">
  <defs>
    <style>
      .cls-1 {
        fill: url(#Gradiente_sem_nome_26);
      }

      .cls-1, .cls-2, .cls-3, .cls-4, .cls-5, .cls-6, .cls-7 {
        stroke-width: 0px;
      }

      .cls-8 {
        stroke: #f4f4f4;
        stroke-linejoin: round;
        stroke-width: 2.5px;
      }

      .cls-8, .cls-2, .cls-6 {
        fill: #f4f4f4;
      }

      .cls-3 {
        fill: #00cfff;
      }

      .cls-4 {
        fill: url(#Gradiente_sem_nome_27);
      }

      .cls-5 {
        fill: url(#Gradiente_sem_nome_16);
      }

      .cls-6 {
        fill-rule: evenodd;
      }

      .cls-7 {
        fill: url(#Gradiente_sem_nome_28);
      }
    </style>
    <linearGradient id="Gradiente_sem_nome_28" data-name="Gradiente sem nome 28" x1="783.25" y1="73.88" x2="874.7" y2="73.88" gradientUnits="userSpaceOnUse">
      <stop offset=".1" stop-color="#00e7ff"/>
      <stop offset="1" stop-color="#00abff"/>
    </linearGradient>
    <linearGradient id="Gradiente_sem_nome_26" data-name="Gradiente sem nome 26" x1="538.65" y1="73.95" x2="716.27" y2="73.95" gradientUnits="userSpaceOnUse">
      <stop offset=".22" stop-color="#00e7ff"/>
      <stop offset=".87" stop-color="#00abff"/>
    </linearGradient>
    <linearGradient id="Gradiente_sem_nome_27" data-name="Gradiente sem nome 27" x1="673.19" y1="73.92" x2="774.94" y2="73.92" gradientUnits="userSpaceOnUse">
      <stop offset=".22" stop-color="#00e7ff"/>
      <stop offset=".92" stop-color="#00abff"/>
    </linearGradient>
    <linearGradient id="Gradiente_sem_nome_16" data-name="Gradiente sem nome 16" x1="502.11" y1="70.66" x2="531.65" y2="70.66" gradientUnits="userSpaceOnUse">
      <stop offset=".33" stop-color="#00e7ff"/>
      <stop offset=".87" stop-color="#00abff"/>
    </linearGradient>
  </defs>
  <g id="Camada_1-2" data-name="Camada 1">
    <g>
      <g>
        <path class="cls-2" d="M393.49,117.83c-6.12,0-11.73-1.16-16.67-3.44-4.94-2.28-9.17-5.4-12.57-9.29-3.4-3.88-5.93-8.51-7.54-13.75-1.6-5.22-2.13-10.89-1.58-16.86l.02-.23c.55-5.96,2.14-11.62,4.72-16.82,2.58-5.2,5.96-9.82,10.04-13.75,4.09-3.94,8.88-7.08,14.25-9.34,5.38-2.27,11.2-3.42,17.3-3.42s11.73,1.16,16.67,3.44c4.94,2.28,9.17,5.4,12.57,9.29,3.4,3.89,5.93,8.51,7.54,13.75.64,2.09,1.37,6.26,1.4,6.43.06.36-.03.73-.27,1.01-.23.28-.57.45-.94.46,0,0-18.48.42-18.49.42-.56,0-1.05-.37-1.2-.91l-.11-.4c-.81-2.76-2.07-5.22-3.76-7.31-1.76-2.18-3.95-3.93-6.52-5.2-2.56-1.27-5.46-1.91-8.63-1.91s-6.32.63-9.1,1.87c-2.79,1.25-5.28,3-7.39,5.2-2.13,2.22-3.9,4.83-5.25,7.76-1.35,2.93-2.2,6.1-2.5,9.44l-.02.24c-.31,3.33-.05,6.51.76,9.46.8,2.93,2.11,5.52,3.87,7.71,1.76,2.18,3.94,3.93,6.47,5.2,2.52,1.27,5.44,1.91,8.68,1.91s6.24-.63,9.05-1.87c2.82-1.25,5.33-3,7.44-5.2,2.09-2.18,3.83-4.73,5.18-7.59l.08-.17c.21-.44.65-.72,1.13-.72,0,0,18.36.19,18.36.19.41,0,.79.21,1.02.54.23.33.29.76.15,1.14-.06.17-1.55,4.22-2.55,6.23-2.58,5.2-5.96,9.82-10.04,13.75-4.09,3.93-8.88,7.08-14.25,9.34-5.38,2.27-11.2,3.42-17.3,3.42Z"/>
        <path class="cls-2" d="M401.47,32.18c5.96,0,11.34,1.11,16.15,3.32,4.8,2.21,8.85,5.21,12.15,8.98,3.3,3.77,5.72,8.2,7.28,13.29.62,2.04,1.37,6.28,1.37,6.28l-18.46.42s-.08-.28-.12-.42c-.86-2.93-2.19-5.51-3.98-7.74-1.88-2.33-4.19-4.18-6.93-5.54-2.74-1.36-5.8-2.04-9.19-2.04s-6.66.66-9.61,1.98c-2.95,1.32-5.54,3.15-7.78,5.48-2.24,2.33-4.06,5.03-5.49,8.1-1.42,3.07-2.29,6.35-2.61,9.85l-.02.23c-.32,3.5-.05,6.8.8,9.91.85,3.11,2.22,5.83,4.1,8.16,1.88,2.33,4.17,4.18,6.88,5.54,2.71,1.36,5.79,2.04,9.24,2.04s6.57-.66,9.56-1.98c2.99-1.32,5.6-3.15,7.84-5.48,2.19-2.29,4-4.93,5.4-7.93.03-.06.08-.17.08-.17l18.35.19s-1.52,4.13-2.5,6.11c-2.53,5.09-5.79,9.56-9.79,13.41-4,3.85-8.62,6.88-13.86,9.09-5.25,2.21-10.85,3.32-16.81,3.32s-11.35-1.11-16.15-3.32c-4.8-2.21-8.85-5.21-12.15-8.98-3.3-3.77-5.72-8.2-7.28-13.29-1.56-5.09-2.07-10.55-1.53-16.38l.02-.23c.54-5.83,2.07-11.29,4.6-16.38,2.53-5.09,5.79-9.56,9.79-13.41,4-3.85,8.62-6.88,13.86-9.09,5.25-2.21,10.85-3.32,16.81-3.32M401.47,29.68c-6.27,0-12.25,1.18-17.79,3.52-5.51,2.32-10.43,5.55-14.63,9.59-4.19,4.03-7.65,8.77-10.29,14.09-2.66,5.34-4.29,11.15-4.85,17.26l-.02.24c-.56,6.12-.01,11.96,1.63,17.33,1.65,5.41,4.28,10.19,7.79,14.2,3.51,4.02,7.88,7.25,12.98,9.6,5.11,2.36,10.89,3.55,17.19,3.55s12.25-1.18,17.79-3.52c5.5-2.32,10.43-5.55,14.63-9.59,4.19-4.03,7.65-8.77,10.29-14.09,1.03-2.08,2.54-6.19,2.61-6.36.28-.76.17-1.61-.29-2.28s-1.22-1.07-2.03-1.08l-18.35-.19s-.02,0-.03,0c-.97,0-1.85.56-2.27,1.44l-.07.16c-1.29,2.75-2.95,5.19-4.95,7.27-2,2.08-4.37,3.74-7.04,4.92-2.65,1.17-5.53,1.77-8.54,1.77s-5.78-.6-8.12-1.77c-2.37-1.19-4.41-2.83-6.06-4.87-1.66-2.05-2.88-4.49-3.64-7.25-.77-2.8-1.01-5.84-.72-9.02l.02-.23c.29-3.2,1.1-6.24,2.39-9.03,1.3-2.8,2.99-5.3,5.02-7.42,2-2.09,4.36-3.74,7-4.93,2.61-1.17,5.5-1.76,8.59-1.76s5.69.6,8.07,1.78c2.4,1.19,4.46,2.83,6.1,4.87,1.58,1.96,2.77,4.27,3.53,6.87l.11.39c.3,1.08,1.29,1.83,2.41,1.83.02,0,.04,0,.06,0l18.46-.42c.73-.02,1.41-.35,1.88-.91.46-.56.66-1.3.53-2.02-.03-.18-.78-4.42-1.44-6.58-1.65-5.41-4.28-10.19-7.79-14.2-3.52-4.02-7.88-7.25-12.98-9.6-5.11-2.36-10.9-3.55-17.19-3.55h0Z"/>
      </g>
      <path class="cls-7" d="M838.67,29.36l-38.32.1c-2.2.01-3.69,1.4-4.07,3.79l-12.95,81.37c-.38,2.39.67,3.77,2.87,3.77l13.63-.04c2.19,0,3.68-1.39,4.06-3.78l2.63-16.5,18.57-.06,7.33,17.73c.65,1.76,1.91,2.52,3.76,2.51l15.59-.04c2.78,0,4.12-1.9,2.92-4.54l-8.76-18.23c11.62-4.82,17.77-15.91,20.08-30.4l.38-2.39c3.43-21.54-4.62-33.35-27.72-33.29ZM854.93,47.01c.3-.49.31-1.2.31-1.28.04.1.26.76.71,1.11.45.34,1.16.35,1.23.35-.1.05-.66.3-.93.7-.35.55-.37,1.3-.37,1.3,0,0-.26-.73-.73-1.08-.5-.35-1.21-.31-1.21-.31,0,0,.67-.27.99-.79ZM849.93,54.69c-3.12,3.27-4.56,10.15-4.56,10.15-2.56,9.35-7.33,11.98-15.99,12.01l-19.49.06,4.15-26.08s12.78-.04,18.55-.04c2.76,0,5.49-.77,7.73-2.37.59-.42,1.16-.91,1.66-1.45,2.9-3.17,3.77-8.46,3.77-8.46,0,0,.56,5.37,3.48,8.56,2.84,3.1,8.06,4.02,8.06,4.02,0,0-4.77.9-7.36,3.61ZM861.13,51.01c-1.17.47-2.06,1.62-2.17,1.77.03-.15.41-1.61.02-2.71-.39-1.1-1.49-1.85-1.66-1.96.18.03,1.51.28,2.59-.18,1.18-.5,2.07-1.83,2.07-1.83,0,0-.51,1.52-.11,2.75.37,1.1,1.51,1.94,1.68,2.07-.2-.04-1.47-.3-2.42.09Z"/>
      <path class="cls-1" d="M716.19,33.17s-7.87,12.12-9.05,13.98c-1.18,1.86-4.15,3.78-6.34,3.79l-27.37-.1-10.13,63.61c-.38,2.39-1.87,3.78-4.06,3.79l-13.75.03c-2.19.01-3.24-1.37-2.86-3.77l10.12-63.6h-76.32c-5.09.01-7.54,1.53-8.26,6.07-.72,4.54.89,6.05,5.58,6.41l25.83,2.08c17.38,1.34,23.24,8.88,20.58,25.52-2.73,17.15-12.23,27.38-31.8,27.43,0,0-30.61.08-40.51.08-7.04,0-9.71-4.48-9.12-11.37.59-6.89,2.02-12.41,2.59-15.13.56-2.72,1.89-3.91,4.09-3.92l16.42-.22c.96,0-2.66,9.27,3.04,9.25l26.67-.12c5.1-.01,7.54-1.53,8.26-6.07.75-4.66-.87-6.17-5.55-6.54l-25.83-2.07c-14.34-1.21-20.82-6.24-21.21-17.26-.09-2.42.12-5.13.6-8.14,1.34-8.39,4.3-15.13,9.26-19.82,5.18-4.9,12.55-7.58,22.55-7.61,0,0,37.86-.01,53.93-.02.18-.03.37-.04.57-.04h79.2c2.2-.02,3.25,1.37,2.87,3.76Z"/>
      <path class="cls-4" d="M754.2,118.45h16.9c2.9,0,4.35-1.77,3.68-4.41l-22.8-81.73c-.53-2.02-1.76-2.9-3.9-2.9h-17.53c-2.14,0-3.69.88-4.93,2.9l-51.62,81.73c-1.6,2.65-.78,4.41,2.12,4.41h16.9c2.14,0,3.84-1.01,4.93-2.9l6.48-10.97h43.26l2.61,10.97c.42,1.89,1.76,2.9,3.9,2.9ZM715.2,86.41l20.13-34.06,8.12,34.06h-28.25Z"/>
      <g>
        <path class="cls-2" d="M443.41,117.25c-.36,0-.71-.16-.95-.43-.24-.27-.34-.64-.29-1l12.38-83.86c.09-.61.61-1.07,1.23-1.07,0,0,18.41-.05,18.41-.05.36,0,.71.16.95.43.24.27.34.64.29,1l-4.34,29.42,31.08-30.57c.23-.23.55-.36.87-.36,0,0,24.53-.06,24.53-.06.51,0,.97.31,1.16.79.19.48.07,1.02-.3,1.37l-39.12,36.87,39.42,45.25c.32.37.4.89.2,1.34-.2.45-.65.73-1.13.73,0,0-24.12.06-24.13.06-.37,0-.71-.16-.95-.44l-33.87-39.71-5.78,39.18c-.09.61-.61,1.07-1.23,1.07,0,0-18.41.05-18.41.05Z"/>
        <path class="cls-2" d="M527.58,31.94l-40,37.69,40.2,46.16-24.12.06-35.66-41.8-6.18,41.9-18.41.05,12.38-83.86,18.41-.05-4.89,33.11,33.74-33.19,24.53-.06M527.58,29.44s0,0,0,0l-24.53.06c-.65,0-1.28.26-1.75.72l-28.43,27.96,3.8-25.73c.11-.72-.11-1.45-.58-2-.48-.55-1.16-.86-1.89-.86,0,0,0,0,0,0l-18.41.05c-1.24,0-2.29.91-2.47,2.14l-12.38,83.86c-.11.72.11,1.45.58,2,.48.55,1.16.86,1.89.86h0l18.41-.05c1.24,0,2.29-.91,2.47-2.14l5.38-36.45,32.09,37.61c.47.56,1.17.88,1.9.88h0l24.12-.06c.98,0,1.87-.58,2.27-1.47.4-.89.25-1.94-.39-2.67l-38.63-44.34,38.25-36.04c.75-.7.99-1.79.61-2.74-.38-.95-1.3-1.57-2.32-1.57h0Z"/>
      </g>
      <path class="cls-8" d="M260.72,32.14l-29.23.09,12.68,16.42,15.6-.06c6.96-.02,10.87,3.49,9.87,10.22-.76,5.21-3.78,8.46-8.21,9.74-.73.21-.53.37-1.32.47-.45,0,9.35,12.92,10.02,13.01,10.23-3.66,16.54-11.43,18.29-23.27,2.48-16.83-8.3-26.67-27.7-26.62ZM222.27,84.83c-3.97-5.15-8.03-10.43-8.03-10.43l-6.81,43.71,18.41-.05s2.34-11.38,3.21-17.57c.65-4.96-.59-6.93-6.78-15.66Z"/>
      <g>
        <path class="cls-2" d="M79.58,117.69c-.37,0-.72-.16-.96-.45-.24-.28-.34-.66-.27-1.02l5.11-28.61c.25-1.43.83-2.8,1.66-3.99l13.59-19.37c.23-.33.62-.53,1.02-.53,0,0,45.29.14,45.29.14.36,0,.71.16.94.43.24.27.34.64.29,1l-2.39,16.19c-.09.61-.62,1.07-1.23,1.07l-38.12.09-2.68,15.75s52.04-.12,52.04-.12c.36,0,.71.16.95.43.24.27.34.64.29,1l-2.47,16.75c-.09.61-.62,1.07-1.23,1.07,0,0-71.82.17-71.82.17Z"/>
        <path class="cls-2" d="M99.73,64.97l45.29.14-2.39,16.19-39.17.09-3.11,18.25,53.52-.12-2.47,16.75-71.82.17,5.11-28.61c.22-1.25.72-2.45,1.45-3.49l13.59-19.37M99.73,62.47c-.81,0-1.58.4-2.05,1.06l-13.59,19.37c-.94,1.33-1.58,2.88-1.87,4.49l-5.11,28.61c-.13.73.07,1.48.55,2.05.48.57,1.18.89,1.92.89h0l71.82-.17c1.24,0,2.29-.91,2.47-2.14l2.47-16.75c.11-.72-.11-1.45-.58-2-.47-.55-1.16-.86-1.89-.86,0,0,0,0,0,0l-50.55.11,2.26-13.25,37.07-.09c1.24,0,2.29-.91,2.47-2.13l2.39-16.19c.11-.72-.1-1.45-.58-2-.47-.55-1.16-.87-1.89-.87l-45.29-.14s0,0,0,0h0Z"/>
      </g>
      <g>
        <path class="cls-2" d="M32.44,144.38h2.39c.44,0,.63-.24.51-.68l-4.26-15.89c-.1-.36-.31-.51-.68-.51h-2.59c-.31,0-.56.12-.73.39l-11.1,15.96c-.29.41-.1.73.39.73h2.56c.31,0,.56-.12.73-.39l1.72-2.56h9.79l.6,2.42c.07.34.29.53.65.53ZM23.25,138.67l5.32-7.86,1.93,7.86h-7.25Z"/>
        <path class="cls-2" d="M74.06,144.38h5.56c4.01,0,5.83-2.27,6.58-5.88l.63-2.93c.1-.44-.12-.65-.53-.65h-6.89c-.36,0-.6.19-.68.53l-.36,1.74c-.1.44.12.65.53.65h4.09l-.17.77c-.44,2.08-1.28,2.54-2.9,2.54h-5.59c-1.62,0-2.25-.46-1.81-2.54l1.16-5.54c.46-2.1,1.26-2.56,2.93-2.56h5.56c1.48,0,2.13.36,1.96,1.86-.05.44.12.68.53.68h2.15c.36,0,.6-.17.65-.56.48-3.29-1.23-5.2-5.03-5.2h-5.56c-3.99,0-5.8,2.27-6.58,5.9l-1.11,5.3c-.75,3.6.87,5.88,4.89,5.88Z"/>
        <path class="cls-2" d="M128.74,123.29l-1.86,2.01c-.36.39-.22.75.31.75h1.38c.31,0,.53-.07.75-.31l1.28-1.35.68,1.23c.15.29.36.44.7.44h1.35c.46,0,.63-.31.44-.73l-.94-1.91c-.15-.29-.36-.44-.7-.44h-2.66c-.31,0-.51.1-.73.31ZM120.27,144.38h13.2c.36,0,.6-.19.68-.53l.41-2.03c.1-.44-.12-.65-.53-.65h-10.42l.85-3.94h6.84c.36,0,.6-.19.68-.53l.39-1.79c.1-.44-.12-.65-.53-.65h-6.72l.77-3.72h10.54c.36,0,.6-.19.68-.53l.41-2.03c.1-.44-.12-.65-.53-.65h-13.2c-.36,0-.6.19-.68.53l-3.36,15.89c-.1.44.12.65.53.65Z"/>
        <path class="cls-2" d="M169.05,144.38h2.13c.36,0,.6-.19.68-.53l2.49-11.9,6.84,12.02c.17.29.41.41.73.41h2.18c.36,0,.6-.19.68-.53l3.36-15.89c.1-.44-.12-.65-.53-.65h-2.13c-.36,0-.6.19-.68.53l-2.51,11.8-6.8-11.92c-.17-.29-.41-.41-.73-.41h-2.2c-.36,0-.6.19-.68.53l-3.36,15.89c-.1.44.12.65.53.65Z"/>
        <path class="cls-2" d="M225.42,144.38h5.56c4.01,0,5.68-2.27,6.43-5.88l.1-.48c.05-.29-.17-.46-.58-.46h-2.13c-.36,0-.6.19-.68.53l-.1.53c-.44,2.08-1.28,2.54-2.93,2.54h-5.39c-1.62,0-2.25-.46-1.81-2.54l1.16-5.54c.46-2.1,1.26-2.56,2.93-2.56h5.39c1.67,0,2.27.46,1.81,2.56l-.07.39c-.05.27.19.41.6.41h2.13c.36,0,.58-.19.65-.56l.02-.12c.77-3.63-.85-5.9-4.86-5.9h-5.39c-3.99,0-5.83,2.27-6.6,5.9l-1.11,5.3c-.75,3.6.85,5.88,4.86,5.88Z"/>
        <path class="cls-2" d="M271.25,144.38h2.1c.36,0,.6-.19.68-.53l3.36-15.89c.1-.44-.12-.65-.53-.65h-2.1c-.36,0-.6.19-.68.53l-3.36,15.89c-.1.44.12.65.53.65Z"/>
        <path class="cls-2" d="M324.26,144.38h2.39c.44,0,.63-.24.51-.68l-4.26-15.89c-.1-.36-.31-.51-.68-.51h-2.59c-.31,0-.56.12-.73.39l-11.1,15.96c-.29.41-.1.73.39.73h2.56c.31,0,.56-.12.73-.39l1.72-2.56h9.79l.6,2.42c.07.34.29.53.65.53ZM315.07,138.67l5.32-7.86,1.93,7.86h-7.25Z"/>
        <path class="cls-2" d="M399.44,144.38h10.71c3.99,0,5.76-2.06,6.65-6.31l.92-4.35c.92-4.28-.77-6.41-4.76-6.41h-10.01c-.36,0-.6.19-.68.53l-3.36,15.89c-.1.44.12.65.53.65ZM402.8,141.18l2.27-10.66h7.23c1.89,0,2.66.56,2.1,3.22l-.92,4.28c-.58,2.66-1.62,3.17-3.43,3.17h-7.25Z"/>
        <path class="cls-2" d="M450.78,144.38h13.2c.36,0,.6-.19.68-.53l.41-2.03c.1-.44-.12-.65-.53-.65h-10.42l.85-3.94h6.84c.36,0,.6-.19.68-.53l.39-1.79c.1-.44-.12-.65-.53-.65h-6.72l.77-3.72h10.54c.36,0,.6-.19.68-.53l.41-2.03c.1-.44-.12-.65-.53-.65h-13.2c-.36,0-.6.19-.68.53l-3.36,15.89c-.1.44.12.65.53.65Z"/>
      </g>
      <path class="cls-3" d="M542.24,144.38h2.13c.36,0,.6-.19.68-.53l2.83-13.3h5.27c.36,0,.6-.19.68-.53l.41-2.06c.1-.44-.12-.65-.53-.65h-13.78c-.36,0-.6.19-.68.53l-.41,2.06c-.1.44.12.65.53.65h5.15l-2.81,13.18c-.1.44.12.65.53.65Z"/>
      <path class="cls-3" d="M597.21,127.3h-8.42c-.36,0-.6.19-.68.53l-3.36,15.89c-.1.44.12.65.53.65h2.13c.36,0,.6-.19.68-.53l.82-3.94h6.14l1.74,4.01c.12.31.36.46.7.46h2.39c.46,0,.65-.29.46-.7l-1.96-4.04c2.83-.7,4.04-2.73,4.67-5.78l.1-.39c.87-4.09-.99-6.17-5.95-6.17ZM599.77,133.47l-.07.34c-.6,2.47-1.77,2.9-4.33,2.9h-5.78l1.33-6.19h5.76c2.64,0,3.68.48,3.1,2.95Z"/>
      <path class="cls-3" d="M650.36,122.93h-2.06c-.31,0-.56.12-.73.41l-1.11,1.93c-.24.44-.05.73.44.73h1.33c.31,0,.56-.1.75-.34l1.72-1.98c.34-.41.17-.75-.34-.75ZM650.51,144.38h2.39c.44,0,.63-.24.51-.68l-4.26-15.89c-.1-.36-.31-.51-.68-.51h-2.59c-.31,0-.56.12-.73.39l-11.1,15.96c-.29.41-.1.73.39.73h2.56c.31,0,.56-.12.73-.39l1.72-2.56h9.79l.6,2.42c.07.34.29.53.65.53ZM641.32,138.67l5.32-7.86,1.93,7.86h-7.25Z"/>
      <path class="cls-3" d="M687.73,144.38h2.1c.36,0,.6-.19.68-.53l1.4-6.63h6.55c.36,0,.6-.19.68-.53l.39-1.79c.1-.44-.12-.65-.53-.65h-6.43l.77-3.72h10.16c.36,0,.6-.19.68-.53l.41-2.03c.1-.44-.12-.65-.53-.65h-12.82c-.36,0-.6.19-.68.53l-3.36,15.89c-.1.44.12.65.53.65Z"/>
      <path class="cls-3" d="M735.71,144.38h13.2c.36,0,.6-.19.68-.53l.41-2.03c.1-.44-.12-.65-.53-.65h-10.42l.85-3.94h6.84c.36,0,.6-.19.68-.53l.39-1.79c.1-.44-.12-.65-.53-.65h-6.72l.77-3.72h10.54c.36,0,.6-.19.68-.53l.41-2.03c.1-.44-.12-.65-.53-.65h-13.2c-.36,0-.6.19-.68.53l-3.36,15.89c-.1.44.12.65.53.65Z"/>
      <path class="cls-3" d="M789.05,144.38h5.56c4.01,0,5.83-2.27,6.58-5.88l.63-2.93c.1-.44-.12-.65-.53-.65h-6.89c-.36,0-.6.19-.68.53l-.36,1.74c-.1.44.12.65.53.65h4.09l-.17.77c-.44,2.08-1.28,2.54-2.9,2.54h-5.59c-1.62,0-2.25-.46-1.81-2.54l1.16-5.54c.46-2.1,1.26-2.56,2.93-2.56h5.56c1.48,0,2.13.36,1.96,1.86-.05.44.12.68.53.68h2.15c.36,0,.6-.17.65-.56.48-3.29-1.23-5.2-5.03-5.2h-5.56c-3.99,0-5.8,2.27-6.58,5.9l-1.11,5.3c-.75,3.6.87,5.88,4.88,5.88Z"/>
      <path class="cls-3" d="M840.42,144.38h6.22c4.01,0,5.83-2.27,6.58-5.88l1.11-5.3c.8-3.63-.87-5.9-4.86-5.9h-6.24c-3.99,0-5.8,2.27-6.58,5.9l-1.11,5.3c-.75,3.6.87,5.88,4.89,5.88ZM840.68,141.16c-1.77,0-2.22-.65-1.81-2.54l1.16-5.54c.44-1.93,1.14-2.56,2.93-2.56h6.22c1.81,0,2.25.63,1.84,2.56l-1.16,5.54c-.41,1.89-1.16,2.54-2.93,2.54h-6.24Z"/>
      <path class="cls-5" d="M502.85,68.6l18.95-17.78c1.48-1.39,3.9-.34,3.9,1.69v36.29c0,2.05-2.47,3.09-3.93,1.66l-18.95-18.51c-.94-.92-.93-2.44.03-3.35Z"/>
      <g>
        <path class="cls-2" d="M370.84.3c-3.15,1.73-9.68,5.25-16.38,8.49-6.14,2.97-14.21,5.36-18.11,6.58-1.71.58-1.61,1.56-.2,2.44,1.65.96,4.66,2.38,6.66,4.38,1,1,.75,2.5-.12,4-.88,1.5-2.38,3-3.88,4-3,2-2.72,1.71-5,3-2.62,1.48-4.08,3.27-3.5,3.23,1.11-.09,1.98-.26,2.53-.37-1.21.43-6.03,3.2-6.03,5.14s-7.09,3.8-7,5c.1,1.46,3,1,4.49-.42,1.49-1.43,3.55-1.96,3.13-1.43-1.23,1.53-5.68,3.74-11.52,5.52-3.04.92-2.63,4.73-4.56,7.2-.91,1.15-1.74,1.67-2.66,2.19-.9.5-1.88,1.02-3.1,2.13-2.49,2.26,3.63,2.04,6.96.24-.26.61-4.45,1.82-6.48,2.88.15-.08-5.09,4.08-6.64,3.43-1.56-.65-3.7,2.11-6.08,3.29-2.39,1.17-2.01,3.82,1.2,3.36,3.2-.46,4.08-.48,4.08-.48,0,0-3.3,2.02-6,3.36-1.7.83-3.58,3.64-2.4,3.36,4.84-1.19.83,1.82-1.14,2.54.97-.43-5.76.13-5.82,2.98-.03,1.45-1.77,1.35-2.64.48-.57-.57-3.87.57-5.12,2.16-1.19,1.52-3.32,2.06-5.57,3.18,1.11-.65,1.86-1.66,1.09-1.98-.7-.29-3.03.29-4.08-.24-.88-.45-1.74-1.04-2.5-1.67-18-23.31-39.77-51.48-41.33-53.42-2.31-2.66-4.31-3.66-8.31-3.66h-124c-2,0-5,0-6.57,2.34-1.58,2.34-29.43,43.66-29.43,43.66,0,0-16-39-17-42s-2-4-5-4h-14c-5,0-5,2-5.5,4.5C12.9,38.53,3.26,113.2.02,141.57c-.31,2.77,3.28,4.12,4.87,1.83l18.34-23.42c.38-.52.63-1.12.73-1.76l6.55-42.01,17.38,41.3c.83,2.02,3.56,2.31,4.79.52l43.49-63.9c.4-.59,1.06-.95,1.77-.95l72.96-.95c1.52-.02,2.71,1.33,2.48,2.84l-9.19,61.55c-.2,1.35.85,2.57,2.22,2.57h18.64c1.01,0,1.87-.74,2.02-1.74l9.31-62.37c.25-1.66,1.67-2.89,3.35-2.89h4.08c4,0,8,6,8,6,0,0,37,50,42,56s9.66,5.27,9.66,5.27l25.02-.06,5.58.06h67.68s-7.84-3.89-4.8-5.28c3.03-1.4-6.12-5.22-8.4-6.96-2.29-1.75-5.14-2.23-8.16-.72.38-.66.11-1.49.24-2.4.11-.84.66-1.79.24-1.92-1.6-.52-5.07.45-6,1.68-1.46,1.91-2.66,1.09-3.6-.24-1.74-2.44,1.28-8.03-3.12-5.04-3.03,2.05-4.51-6.06-2.4-5.04,2.11,1.01,4.55-9.16,3.6-4.56-1.72,8.28,5.66-.82,3.6-5.76-.76-1.82-2.84-7.9-.48-6.72,2.36,1.18,4.34-6.46,4.51-5.85-.2,2.59.71,5.6,2.83,4.54,1.29-.64,2.54-5.21,3-7,1.23-4.77,3-3,3-7s3-13,4-9,4.39-7.45,5-11c.72-4.17,2.92-8.92,7-5,1.02.98,2.77,3.17,3.79,4.21.97.96,2.27,1.06,2.41-1.17.08-4.15.33-11.28,1.19-18.28.96-7.82,2.42-15.75,3.14-19.5.24-1.34-.43-1.82-1.5-1.15ZM348.81,33.19c-.39.62.12,1.27-.26,2.07-.61,1.29-.55,2.47-1.72,3.13-1.17.66-1.12,1.45-1.55,1.7-.43.26-.25,1.24-.88,1.84-.63.6-.37,1.8-.65,2.69-.18.54-.04,1.65-.64,1.5-.59-.15-.9.58-.92.98-.04.72-.54,1.81-.92,2.89-.4,1.15-.67,2.29-.1,2.96,1.1,1.3-3.25,10.72-3.18,8.67.09-2.94.12-6.1-.48-7.68-.02-.04-.03-.09-.05-.12-.55-1.25-1.19.29-1.57,1.61-.17.61-.28,1.17-.3,1.39-.53,5.54-2.93,4.73-2.83,9.69.09,4.95-2.42.2-2.69-2.25-.53-4.72-3.31,12.8-2.88,5.52.23-3.99-1.78,4.52-1.44,5.52.25.75.03,3.31-.33,5.57-.46,3.02-1.17,5.52-1.29,2.51-.01-.23-.04-.4-.08-.53-.29-.83-1.22.23-1.4,2.01h0c-.01.1-.02.19-.02.28-.24,4.42.48,12.45-1.2,7.2-1.65-5.14-3.07,2.45-1.92,3.12,1.14.67,2.27,8.17,4.32,6.96,2.97-1.76,1.19,7.87,3.36,5.28,1.47-1.78,6.66,4.93,8.54,1.05,1.34-2.77,6.16,5.51,6.76,2.58.6-2.93,4.44.43,5.82-.75,3.09-2.66-.26,3.2,2.02,3.43,1.18.13.91.88.38,1.57-.49.64,1.68,1.24,1.68,1.24,0,0-27.63.08-52,.15-1.69,0-3.36,0-5.01.01-4.32.01-8.46.02-12.24.04-1.66,0-3.25,0-4.76.01-7.95.02-13.49.03-14.31.03-3.42,0-6.82-3.02-8.88-5.28-2.04-2.23-11.92-15.88-12.23-16.31.28.18,12.19,7.95,13.95,3.23,1.78-4.78,11.53,3.2,11.58.54.01-.41.04-.76.1-1.07.05-.34.14-.62.26-.84,1.36-2.76,6.3,2.25,8.9.53,2.05-1.38,5.15-6.71,8.35-5.35,3.2,1.35,4.67-3.12,6.77-4.73,3.22-2.49,5.13-6.39,7.44-5.28.71.34,1.82.13,3.08-.38.65-.27,1.34-.62,2.03-1.02,4.16-2.41,8.43-6.65,4.91-5.51-.23.08-.44.13-.61.17-2.43.53.68-2.42,3.64-4.51,1.58-1.12,3.12-1.99,3.75-1.95,2.16.12,9.24-5.4,9.69-7.31.2-.85,1.36-2.09,2.62-3.4.75-.78-1.55-.35-2.61.6-1.2,1.09-2.53,1.47-2,2,1,1-3,3-4.57,1.53-.9-.84,2.57-3.53,2.43-4.86-.14-1.33,3.16-2.86,4.41-3.62.21-.13.41-.23.59-.3,4.34-1.71,5.28-3.37,6.24-4.56,1.5-1.87,3.84-4.99,5.28-5.52.99-.37,3.33-3.92,4.32-4.28.68-.25.65-2.66,1.52-2.6.87.06.73-1.38,1.36-2.2.76-1,1.85-1.7,2.42-2.59.72-1.12,1.55-1.87,1.65-1.96-.07.15-.79,1.59-1.65,2.96Z"/>
        <path class="cls-6" d="M317.77,77.27c-1.62-1.09-7.71,7.54-5.39,6.19,2.32-1.36-2.04,2.96-2.39,3.39-.7.84-10.27,6.42-12.17,5.59-1.55-.68-1.42,1.07-2.99,2.59-2.17,2.1-2.14,2.85-3.19,4.39-1.65,2.43-9.28,2.31-8.38,4.99.89,2.68-13.07-2.01-8.18.6,1.65.88-9.57-.98-6.03.77,3.54,1.74-2.91,1.74-5.35.23-1.17-.73-3.39-2.06-3.8-1.42-.41.64-2.43-.3-2.79-.17-.5.17,4.89,3.77,4.72,5.05-.17,1.28,4.05,2.93,4.86,3.54,1.84,1.36,4.88.62,6.39,1,3.77.95,9.1.19,11.38-.6,2.28-.79,11.22.97,13.17.4,2.03-.59,14.87.83,15.77.2.9-.63,6.16,1.29,7.98.6.83-.31,7.03.6,8.31-.2.42-.26,2.33.35,3.66.4,2.72.11,5.35-.03,4.19-.2-.23-.03-.74-1.91-2-1.4-1.26.51-2.59.28-3.39,0-1.36-.47-2.65-1.29-3.38-.7-1.74,1.4-5.93-1.97-6.89-1.35-.73.47-5.68,2-4.95-.52.73-2.52-1.67-2.97-1.94-2.62-.98,1.3-4.36-.71-3.19-2.99,2.42-4.75-4.47-8.37-2.42-9.68,1.92-1.22,2.6-4.4,3.41-7.28.33-1.18,2.22-1.43,2.4-3.79.17-2.36,4.21-5.89,2.59-6.99Z"/>
      </g>
    </g>
  </g>
</svg>