<?xml version="1.0" encoding="UTF-8"?>
<svg id="Camada_2" data-name="Camada 2" xmlns="http://www.w3.org/2000/svg" viewBox="0 0 531.87 293.56">
  <defs>
    <style>
      .cls-1 {
        fill: #f7f7f7;
      }

      .cls-1, .cls-2, .cls-3 {
        stroke-width: 0px;
      }

      .cls-2, .cls-3 {
        fill: #f4f4f4;
      }

      .cls-3 {
        fill-rule: evenodd;
      }
    </style>
  </defs>
  <g id="Camada_1-2" data-name="Camada 1">
    <g>
      <g>
        <path class="cls-1" d="M395.27,119.03c-6.12,0-11.73-1.16-16.67-3.44-4.94-2.28-9.17-5.4-12.57-9.29-3.4-3.88-5.93-8.51-7.54-13.75-1.6-5.22-2.13-10.89-1.58-16.86l.02-.23c.55-5.96,2.14-11.62,4.72-16.82,2.58-5.2,5.96-9.82,10.04-13.75,4.09-3.94,8.88-7.08,14.25-9.34,5.38-2.27,11.2-3.42,17.3-3.42s11.73,1.16,16.67,3.44c4.94,2.28,9.17,5.4,12.57,9.29,3.4,3.89,5.93,8.51,7.54,13.75.64,2.09,1.37,6.26,1.4,6.43.06.36-.03.73-.27,1.01-.23.28-.57.45-.94.46,0,0-18.48.42-18.49.42-.56,0-1.05-.37-1.2-.91l-.12-.41c-.81-2.76-2.07-5.22-3.76-7.31-1.76-2.18-3.95-3.93-6.52-5.2-2.56-1.27-5.46-1.91-8.63-1.91s-6.32.63-9.1,1.87c-2.79,1.25-5.28,3-7.39,5.2-2.13,2.22-3.9,4.83-5.25,7.76-1.35,2.93-2.2,6.1-2.5,9.44l-.02.24c-.31,3.33-.05,6.51.76,9.46.8,2.93,2.11,5.52,3.87,7.71,1.76,2.18,3.94,3.93,6.47,5.21,2.52,1.27,5.44,1.91,8.68,1.91s6.24-.63,9.05-1.88c2.82-1.25,5.33-3,7.44-5.2,2.09-2.18,3.83-4.74,5.18-7.59l.08-.17c.21-.44.65-.72,1.13-.72,0,0,18.36.19,18.36.19.41,0,.79.21,1.02.54.23.33.29.76.15,1.14-.06.17-1.55,4.22-2.55,6.23-2.58,5.2-5.96,9.82-10.04,13.75-4.09,3.94-8.88,7.08-14.25,9.34-5.38,2.27-11.2,3.42-17.3,3.42Z"/>
        <path class="cls-1" d="M403.25,33.39c5.96,0,11.34,1.11,16.15,3.32,4.8,2.21,8.85,5.21,12.15,8.98,3.3,3.77,5.72,8.2,7.28,13.29.62,2.04,1.37,6.28,1.37,6.28l-18.46.42s-.08-.28-.12-.42c-.86-2.93-2.19-5.51-3.98-7.74-1.88-2.33-4.19-4.18-6.93-5.54-2.74-1.36-5.8-2.04-9.19-2.04s-6.66.66-9.61,1.98c-2.95,1.32-5.55,3.15-7.78,5.48-2.24,2.33-4.06,5.03-5.49,8.1-1.42,3.07-2.29,6.35-2.61,9.85l-.02.23c-.32,3.5-.05,6.8.8,9.91.85,3.11,2.22,5.83,4.1,8.16,1.88,2.33,4.17,4.18,6.88,5.54,2.71,1.36,5.79,2.04,9.24,2.04s6.57-.66,9.56-1.98c2.99-1.32,5.6-3.15,7.84-5.48,2.19-2.29,4-4.93,5.41-7.93.03-.06.08-.17.08-.17l18.35.19s-1.52,4.13-2.5,6.11c-2.53,5.09-5.79,9.56-9.79,13.41-4,3.85-8.62,6.88-13.86,9.09-5.25,2.21-10.85,3.32-16.81,3.32s-11.35-1.11-16.15-3.32c-4.8-2.21-8.85-5.21-12.15-8.98-3.3-3.77-5.72-8.2-7.28-13.29-1.56-5.09-2.07-10.55-1.53-16.38l.02-.23c.54-5.83,2.07-11.29,4.6-16.38,2.53-5.09,5.79-9.56,9.79-13.41,4-3.85,8.62-6.88,13.86-9.09,5.25-2.21,10.85-3.32,16.81-3.32M403.25,30.89c-6.27,0-12.25,1.18-17.79,3.52-5.5,2.32-10.43,5.55-14.63,9.59-4.19,4.03-7.65,8.77-10.29,14.09-2.65,5.34-4.29,11.15-4.85,17.26l-.02.24c-.56,6.12-.01,11.96,1.63,17.33,1.65,5.41,4.28,10.19,7.79,14.2,3.51,4.02,7.88,7.25,12.98,9.6,5.11,2.36,10.89,3.55,17.19,3.55s12.25-1.18,17.79-3.52c5.5-2.32,10.43-5.55,14.63-9.59,4.19-4.03,7.65-8.77,10.29-14.09,1.03-2.08,2.54-6.19,2.61-6.36.28-.76.17-1.61-.29-2.28-.46-.67-1.22-1.07-2.03-1.08l-18.35-.19s-.02,0-.03,0c-.97,0-1.85.56-2.26,1.44l-.08.16c-1.29,2.74-2.95,5.18-4.95,7.27-2,2.08-4.37,3.74-7.04,4.92-2.65,1.17-5.53,1.77-8.54,1.77s-5.78-.6-8.12-1.77c-2.37-1.19-4.41-2.83-6.06-4.87-1.66-2.05-2.88-4.49-3.64-7.25-.77-2.8-1.01-5.84-.72-9.02l.02-.23c.29-3.2,1.1-6.24,2.39-9.03,1.3-2.8,2.99-5.3,5.02-7.42,2-2.09,4.36-3.74,7-4.93,2.61-1.17,5.5-1.76,8.59-1.76s5.69.6,8.07,1.78c2.4,1.19,4.46,2.83,6.1,4.87,1.58,1.96,2.77,4.27,3.53,6.87l.11.39c.3,1.08,1.29,1.83,2.41,1.83.02,0,.04,0,.06,0l18.46-.42c.73-.02,1.41-.35,1.88-.91.46-.56.66-1.3.53-2.02-.03-.18-.78-4.42-1.44-6.58-1.65-5.41-4.27-10.18-7.79-14.2-3.52-4.02-7.89-7.25-12.98-9.6-5.11-2.36-10.9-3.55-17.19-3.55h0Z"/>
      </g>
      <path class="cls-2" d="M484.15,124.21l-63.99.18c-3.66,0-6.15,2.32-6.79,6.32l-21.62,135.87c-.64,4,1.12,6.31,4.78,6.3l22.76-.06c3.66-.01,6.15-2.33,6.79-6.32l4.38-27.56,31.01-.09,12.25,29.61c1.08,2.94,3.19,4.2,6.28,4.19l26.03-.07c4.63-.01,6.87-3.17,4.87-7.58l-14.62-30.45c19.4-8.03,29.67-26.56,33.52-50.75l.64-4c5.72-35.96-7.72-55.69-46.29-55.59ZM511.14,153.21c.54-.87.51-2.13.51-2.13,0,0,.36,1.22,1.18,1.84.76.58,1.97.59,2.05.59,0,0-1.07.41-1.56,1.16-.59.89-.61,2.14-.61,2.14,0,0-.42-1.21-1.21-1.78-.82-.59-1.99-.53-1.99-.53,0,0,1.09-.44,1.63-1.29ZM502.87,165.89c-6.02,6.3-7.52,17.58-7.52,17.58-2.85,17.88-12.25,20-26.71,20.04l-32.55.1,6.93-43.54s21.1-.06,30.15-.08c3.47,0,6.93-.73,10.05-2.24,2.2-1.07,4.61-2.57,6.5-4.64,4.8-5.23,6.24-13.97,6.24-13.97,0,0,.92,8.87,5.75,14.14,4.7,5.12,13.31,6.65,13.31,6.65,0,0-7.87,1.48-12.16,5.96ZM521.38,159.81c-2.07.84-3.59,2.95-3.59,2.95,0,0,.71-2.59.04-4.5-.69-1.96-2.77-3.26-2.77-3.26,0,0,2.4.55,4.32-.28,1.85-.79,3.25-2.8,3.4-3.02-.06.22-.8,2.61-.16,4.54.64,1.97,2.8,3.44,2.8,3.44,0,0-2.33-.56-4.04.13Z"/>
      <path class="cls-2" d="M161.58,272.69l22.95-.06c3.66,0,6.15-2.33,6.79-6.32l16.9-106.22,53.06.16c3.66,0,8.61-3.22,10.59-6.32,1.98-3.11,15.11-23.35,15.11-23.35.64-4-1.12-6.3-4.78-6.3l-139.6.02c-3.66,0-6.15,2.33-6.79,6.32l-3.72,23.35c-.64,4,1.12,6.3,4.78,6.3l36.84-.09-16.9,106.22c-.64,4,1.12,6.3,4.78,6.3Z"/>
      <path class="cls-2" d="M343.11,272.98h28.22c4.84,0,7.26-2.95,6.14-7.37l-38.07-136.48c-.88-3.37-2.94-4.84-6.52-4.84h-29.28c-3.58,0-6.16,1.47-8.23,4.84l-86.2,136.48c-2.68,4.42-1.3,7.37,3.54,7.37h28.22c3.58,0,6.41-1.68,8.23-4.84l10.81-18.32h72.24l4.35,18.32c.71,3.16,2.94,4.84,6.52,4.84ZM277.98,219.48l33.62-56.87,13.56,56.87h-47.18Z"/>
      <path class="cls-2" d="M117.62,160.22c-16.03.02-70.24.09-70.24.09-8.49.02-12.62,2.55-14.01,10.13-1.39,7.57,1.23,10.09,9.02,10.7l54.95-.13c4.1,0,8.21.32,12.22,1.14,22.33,4.59,29.55,20.17,24.98,45.04-5.26,28.6-21.51,45.67-54.11,45.76,0,0-43.16.11-59.65.11C9.06,273.06-.25,260,0,249.78c.25-10.23.75-22.61,1.81-27.15,1.05-4.54,4.45-7.92,7.23-6.53,1.9.95,6.32,3.32,11.51,4.69,3.35.89,7.62,1.34,10.32,1.55,1.5.12,2.69,1.32,2.79,2.82.18,2.5-.93,8.98,1.13,11.51s4,2.66,6.31,2.66l45.47-.21c8.49-.02,12.66-4.47,14.06-12.05,1.43-7.78-1.34-13.9-9.13-14.51l-58.76.14c-23.82-2.01-28.4-10.41-28.61-28.79.16,14.83-.46-35.51,11.58-46.66,8.83-8.17,21.22-12.65,37.86-12.69,0,0,46.62-.03,67.15-.04,4.46,0,8.51,2.11,7.6,7.47-1.32,6.5-2.71,15.81-3.95,21.93-.9,3.33-2.71,6.3-6.75,6.3Z"/>
      <g>
        <path class="cls-1" d="M528.85,124.44c-.19,0-.39-.04-.57-.14l-1.86-.95c-6.42-3.3-13.64-5.04-20.86-5.04h-.12c-.37,0-.71-.16-.95-.44l-33.87-39.71-5.78,39.18c-.09.61-.61,1.07-1.23,1.07,0,0-18.41.05-18.41.05-.36,0-.71-.16-.95-.43-.24-.27-.34-.64-.29-1l12.38-83.86c.09-.61.61-1.07,1.23-1.07,0,0,18.41-.05,18.41-.05.36,0,.71.16.95.43.24.27.34.64.29,1l-4.34,29.42,31.08-30.57c.23-.23.55-.36.87-.36,0,0,24.53-.06,24.53-.06.51,0,.97.31,1.16.79.19.48.07,1.02-.3,1.37l-39.12,36.87,19.57,22.47c7.71,8.85,14.2,18.69,19.31,29.25.23.48.13,1.06-.25,1.44-.24.23-.55.36-.87.36Z"/>
        <path class="cls-1" d="M529.37,33.15l-40,37.69,20.36,23.38c7.64,8.77,14.07,18.51,19.12,28.98h0s-1.86-.95-1.86-.95c-6.63-3.41-13.98-5.18-21.43-5.18-.04,0-.08,0-.12,0l-35.66-41.8-6.18,41.9-18.41.05,12.38-83.86,18.41-.05-4.89,33.11,33.74-33.19,24.53-.06M529.37,30.65h0l-24.53.06c-.65,0-1.28.26-1.75.72l-28.43,27.96,3.8-25.73c.11-.72-.11-1.45-.58-2-.47-.55-1.16-.86-1.89-.86h0l-18.41.05c-1.24,0-2.29.91-2.47,2.14l-12.38,83.86c-.11.72.11,1.45.58,2,.47.55,1.16.86,1.89.86h0l18.41-.05c1.24,0,2.29-.91,2.47-2.14l5.38-36.45,32.09,37.61c.48.56,1.17.88,1.9.88,0,0,0,0,0,0h.11c7.02,0,14.04,1.7,20.29,4.9l1.86.95c.36.19.75.28,1.14.28.64,0,1.27-.24,1.75-.71.77-.75.97-1.91.5-2.88-5.15-10.66-11.71-20.6-19.49-29.53l-18.78-21.56,38.25-36.04c.75-.7.99-1.79.61-2.74-.38-.95-1.3-1.57-2.32-1.57h0Z"/>
      </g>
      <g>
        <path class="cls-1" d="M210.21,118.56c-.36,0-.7-.16-.94-.43-.24-.27-.35-.64-.3-.99l5.81-41.7c.07-.5.43-.91.92-1.04.11-.03.21-.04.32-.04.38,0,.75.18.99.49l8.03,10.42c6.29,8.87,7.74,11.16,7.03,16.6-.87,6.19-2.21,15.57-2.21,15.57-.09.61-.61,1.07-1.23,1.07,0,0-18.41.05-18.41.05ZM271.9,84.49c-.06,0-.12,0-.19-.01-.56-.08-.96-.15-6.08-6.83-5.08-6.63-5.05-7-5.01-7.51.04-.6.52-1.09,1.11-1.16h0c.17-.02.23-.04.23-.04.24-.14.47-.27.89-.39,4.13-1.19,6.67-4.2,7.33-8.71.4-2.69-.04-4.8-1.32-6.28-1.42-1.65-3.93-2.52-7.26-2.52,0,0-15.66.07-15.66.07-.39,0-.75-.18-.99-.49l-12.68-16.42c-.29-.38-.34-.89-.13-1.31.21-.43.64-.7,1.12-.7l29.38-.09c10.85,0,19.2,3.03,24.16,8.78,4.17,4.83,5.77,11.5,4.63,19.28-1.81,12.21-8.24,20.38-19.12,24.27-.14.05-.28.07-.42.07Z"/>
        <path class="cls-1" d="M262.65,33.35c19.31,0,30.03,9.82,27.55,26.62-1.75,11.83-8.06,19.61-18.3,23.27-.66-.1-10.46-13.02-10.02-13.02.8-.1.6-.26,1.32-.47,4.44-1.28,7.45-4.52,8.22-9.73,1-6.71-2.89-10.23-9.81-10.23-.02,0-.04,0-.06,0l-15.6.07-12.68-16.42,29.23-.09s.1,0,.15,0M216.02,75.61s4.06,5.27,8.03,10.42c6.19,8.73,7.43,10.71,6.78,15.67-.87,6.18-2.21,15.56-2.21,15.56l-18.41.05,5.81-41.7M262.65,30.85h-.15s-29.23.09-29.23.09c-.95,0-1.82.55-2.24,1.4-.42.86-.31,1.87.27,2.63l12.68,16.42c.47.61,1.2.97,1.98.97,0,0,0,0,.01,0l15.6-.07h.05c2.06,0,4.82.36,6.31,2.09,1.02,1.19,1.37,2.96,1.03,5.28-.6,4.05-2.76,6.64-6.44,7.7-.44.13-.74.27-.98.4-1.15.17-2.06,1.12-2.15,2.3-.08,1.03-.1,1.35,5.27,8.36,5.42,7.08,5.82,7.14,6.88,7.3.12.02.25.03.37.03.29,0,.57-.05.84-.15,11.19-4,18.08-12.73,19.93-25.26,1.2-8.15-.5-15.16-4.92-20.28-5.2-6.03-13.88-9.21-25.11-9.21h0ZM216.02,73.11c-.21,0-.43.03-.64.08-.97.26-1.7,1.07-1.84,2.07l-5.81,41.7c-.1.72.12,1.44.59,1.99.47.54,1.16.86,1.88.86,0,0,0,0,0,0l18.41-.05c1.24,0,2.29-.92,2.47-2.15,0,0,1.34-9.38,2.21-15.57.81-6.15-1.22-9-7.22-17.46-.02-.03-.04-.05-.06-.08l-8.03-10.42c-.48-.62-1.22-.97-1.98-.97h0Z"/>
      </g>
      <g>
        <path class="cls-1" d="M80.35,118.89c-.37,0-.72-.16-.96-.45-.24-.28-.34-.66-.27-1.02l5.46-30.51c.03-.18.1-.35.21-.5l14.7-20.95c.23-.33.62-.53,1.02-.53,0,0,45.29.13,45.29.13.36,0,.71.16.94.43.24.27.34.64.29,1l-2.39,16.19c-.09.61-.62,1.07-1.23,1.07l-38.12.09-2.68,15.76s52.04-.12,52.04-.12c.36,0,.71.16.95.43.24.27.34.64.29,1l-2.47,16.74c-.09.61-.62,1.07-1.23,1.07,0,0-71.83.17-71.83.17Z"/>
        <path class="cls-1" d="M100.51,66.18l45.29.13-2.39,16.19-39.17.09-3.11,18.26,53.52-.12-2.47,16.74-71.83.17,5.46-30.51,14.7-20.95M100.51,63.68c-.81,0-1.58.4-2.05,1.06l-14.7,20.95c-.21.3-.35.64-.41,1l-5.46,30.51c-.13.73.07,1.48.55,2.05.48.57,1.18.89,1.92.89h0l71.83-.17c1.24,0,2.29-.91,2.47-2.14l2.47-16.74c.11-.72-.11-1.45-.58-2-.47-.55-1.16-.86-1.89-.86h0l-50.55.11,2.26-13.26,37.06-.09c1.24,0,2.29-.91,2.47-2.13l2.39-16.19c.11-.72-.11-1.45-.58-2-.47-.55-1.16-.87-1.89-.87l-45.29-.13h0Z"/>
      </g>
      <g>
        <path class="cls-2" d="M33.78,293.56h1.92c.36,0,.51-.23.36-.55l-6.03-12.53c-.11-.23-.29-.34-.55-.34h-2.02c-.27,0-.44.11-.55.34l-6.05,12.53c-.15.32,0,.55.36.55h1.92c.27,0,.46-.13.57-.36l.91-1.96h7.68l.89,1.96c.11.25.3.36.57.36ZM25.63,289.07l2.87-6.18,2.83,6.18h-5.7Z"/>
        <path class="cls-2" d="M56.41,293.56h4.37c3.16,0,4.51-1.79,4.51-4.62v-2.4c0-.3-.17-.48-.48-.48h-5.44c-.3,0-.48.17-.48.48v1.37c0,.3.17.48.48.48h3.27v.65c0,1.63-.59,2-1.86,2h-4.37c-1.27,0-1.86-.36-1.86-2v-4.35c0-1.65.55-2.02,1.86-2.02h4.37c1.18,0,1.73.29,1.84,1.52.02.3.17.48.48.48h1.71c.3,0,.48-.17.46-.49-.15-2.55-1.52-4.03-4.49-4.03h-4.37c-3.16,0-4.51,1.79-4.51,4.64v4.16c0,2.83,1.35,4.62,4.51,4.62Z"/>
        <path class="cls-2" d="M86.69,277.03l-1.1,1.54c-.23.32-.1.57.29.57h1.08c.25,0,.44-.09.59-.29l.76-.93.74.93c.15.21.34.29.59.29h1.08c.38,0,.51-.25.29-.57l-1.08-1.54c-.15-.21-.32-.3-.57-.3h-2.09c-.25,0-.42.1-.57.3ZM83.12,293.56h10.4c.3,0,.48-.17.48-.48v-1.58c0-.3-.17-.48-.48-.48h-8.25v-3.1h5.34c.3,0,.48-.17.48-.48v-1.39c0-.3-.17-.48-.48-.48h-5.34v-2.93h8.25c.3,0,.48-.17.48-.48v-1.58c0-.3-.17-.48-.48-.48h-10.4c-.3,0-.48.17-.48.48v12.47c0,.3.17.48.48.48Z"/>
        <path class="cls-2" d="M111.58,293.56h1.69c.3,0,.48-.17.48-.48v-8.92l7.38,9.11c.15.19.34.29.59.29h1.71c.3,0,.48-.17.48-.48v-12.47c0-.3-.17-.48-.48-.48h-1.69c-.3,0-.48.17-.48.48v8.97l-7.38-9.16c-.15-.19-.34-.29-.59-.29h-1.71c-.3,0-.48.17-.48.48v12.47c0,.3.17.48.48.48Z"/>
        <path class="cls-2" d="M145.76,293.56h4.24c3.16,0,4.51-1.79,4.51-4.62v-.38c0-.23-.17-.36-.48-.36h-1.69c-.3,0-.48.17-.48.48v.36c0,1.63-.59,2-1.86,2h-4.24c-1.27,0-1.86-.36-1.86-2v-4.35c0-1.65.55-2.02,1.86-2.02h4.24c1.31,0,1.86.36,1.86,2.02v.3c0,.19.17.32.48.32h1.69c.3,0,.48-.17.48-.48v-.06c0-2.85-1.35-4.64-4.51-4.64h-4.24c-3.16,0-4.51,1.79-4.51,4.64v4.16c0,2.83,1.35,4.62,4.51,4.62Z"/>
        <path class="cls-2" d="M172.15,293.56h1.67c.3,0,.48-.17.48-.48v-12.47c0-.3-.17-.48-.48-.48h-1.67c-.3,0-.48.17-.48.48v12.47c0,.3.17.48.48.48Z"/>
        <path class="cls-2" d="M203.88,293.56h1.92c.36,0,.51-.23.36-.55l-6.03-12.53c-.11-.23-.29-.34-.55-.34h-2.02c-.27,0-.44.11-.55.34l-6.05,12.53c-.15.32,0,.55.36.55h1.92c.27,0,.46-.13.57-.36l.91-1.96h7.68l.89,1.96c.11.25.3.36.57.36ZM195.73,289.07l2.87-6.18,2.83,6.18h-5.7Z"/>
        <path class="cls-2" d="M243.28,293.56h8.16c3.14,0,4.49-1.62,4.49-4.96v-3.42c0-3.37-1.35-5.04-4.49-5.04h-8.16c-.3,0-.48.17-.48.48v12.47c0,.3.17.48.48.48ZM245.44,291.05v-8.38h5.68c1.48,0,2.19.44,2.19,2.53v3.37c0,2.09-.74,2.49-2.19,2.49h-5.68Z"/>
        <path class="cls-2" d="M273.75,293.56h10.4c.3,0,.48-.17.48-.48v-1.58c0-.3-.17-.48-.48-.48h-8.25v-3.1h5.34c.3,0,.48-.17.48-.48v-1.39c0-.3-.17-.48-.48-.48h-5.34v-2.93h8.25c.3,0,.48-.17.48-.48v-1.58c0-.3-.17-.48-.48-.48h-10.4c-.3,0-.48.17-.48.48v12.47c0,.3.17.48.48.48Z"/>
        <path class="cls-2" d="M325.88,293.56h1.69c.3,0,.48-.17.48-.48v-10.4h4.11c.3,0,.48-.17.48-.48v-1.6c0-.3-.17-.48-.48-.48h-10.86c-.3,0-.48.17-.48.48v1.6c0,.3.17.48.48.48h4.11v10.4c0,.3.17.48.48.48Z"/>
        <path class="cls-2" d="M362.12,285.27v-.29c0-3.21-1.48-4.85-5.38-4.85h-6.9c-.3,0-.48.17-.48.48v12.47c0,.3.17.48.48.48h1.69c.3,0,.48-.17.48-.48v-3.04h4.68l2.07,3.21c.13.21.32.3.57.3h1.98c.38,0,.53-.25.3-.57l-2.26-3.21c2.03-.61,2.78-2.19,2.78-4.51ZM359.46,285.25c0,1.94-.89,2.28-2.93,2.28h-4.52v-4.87h4.52c2.07,0,2.93.36,2.93,2.34v.25Z"/>
        <path class="cls-2" d="M387.88,276.69h-1.65c-.27,0-.44.13-.53.38l-.55,1.48c-.11.34.06.55.4.55h1.08c.25,0,.44-.1.57-.3l.99-1.54c.21-.32.08-.57-.3-.57ZM391.28,293.56h1.92c.36,0,.51-.23.36-.55l-6.03-12.53c-.11-.23-.29-.34-.55-.34h-2.02c-.27,0-.44.11-.55.34l-6.05,12.53c-.15.32,0,.55.36.55h1.92c.27,0,.46-.13.57-.36l.91-1.96h7.68l.89,1.96c.11.25.3.36.57.36ZM383.13,289.07l2.87-6.18,2.83,6.18h-5.7Z"/>
        <path class="cls-2" d="M410.71,293.56h1.67c.3,0,.48-.17.48-.48v-5.15h5.11c.3,0,.48-.17.48-.48v-1.39c0-.3-.17-.48-.48-.48h-5.11v-2.93h7.95c.3,0,.48-.17.48-.48v-1.58c0-.3-.17-.48-.48-.48h-10.1c-.3,0-.48.17-.48.48v12.47c0,.3.17.48.48.48Z"/>
        <path class="cls-2" d="M438.55,293.56h10.4c.3,0,.48-.17.48-.48v-1.58c0-.3-.17-.48-.48-.48h-8.25v-3.1h5.34c.3,0,.48-.17.48-.48v-1.39c0-.3-.17-.48-.48-.48h-5.34v-2.93h8.25c.3,0,.48-.17.48-.48v-1.58c0-.3-.17-.48-.48-.48h-10.4c-.3,0-.48.17-.48.48v12.47c0,.3.17.48.48.48Z"/>
        <path class="cls-2" d="M470.34,293.56h4.37c3.16,0,4.51-1.79,4.51-4.62v-2.4c0-.3-.17-.48-.48-.48h-5.44c-.3,0-.48.17-.48.48v1.37c0,.3.17.48.48.48h3.27v.65c0,1.63-.59,2-1.86,2h-4.37c-1.27,0-1.86-.36-1.86-2v-4.35c0-1.65.55-2.02,1.86-2.02h4.37c1.18,0,1.73.29,1.84,1.52.02.3.17.48.48.48h1.71c.3,0,.48-.17.46-.49-.15-2.55-1.52-4.03-4.49-4.03h-4.37c-3.16,0-4.51,1.79-4.51,4.64v4.16c0,2.83,1.35,4.62,4.51,4.62Z"/>
        <path class="cls-2" d="M500.83,293.56h4.89c3.16,0,4.51-1.79,4.51-4.62v-4.16c0-2.85-1.35-4.64-4.51-4.64h-4.89c-3.16,0-4.51,1.79-4.51,4.64v4.16c0,2.83,1.35,4.62,4.51,4.62ZM500.83,291.03c-1.27,0-1.86-.36-1.86-2v-4.35c0-1.65.55-2.02,1.86-2.02h4.89c1.33,0,1.86.36,1.86,2.02v4.35c0,1.63-.59,2-1.86,2h-4.89Z"/>
      </g>
      <g>
        <path class="cls-2" d="M371.88.3c-3.15,1.73-9.68,5.25-16.38,8.49-6.14,2.97-14.21,5.36-18.11,6.58-1.71.58-1.61,1.56-.2,2.44,1.65.96,4.66,2.38,6.66,4.38,1,1,.75,2.5-.12,4-.88,1.5-2.38,3-3.88,4-3,2-2.72,1.71-5,3-2.62,1.48-4.08,3.27-3.5,3.23,1.11-.09,1.98-.26,2.53-.37-1.21.43-6.03,3.2-6.03,5.14s-7.09,3.8-7,5c.1,1.46,3,1,4.49-.42,1.49-1.43,3.55-1.96,3.13-1.43-1.23,1.53-5.68,3.74-11.52,5.52-3.04.92-2.63,4.73-4.56,7.2-.91,1.15-1.74,1.67-2.66,2.19-.9.5-1.88,1.02-3.1,2.13-2.49,2.26,3.63,2.04,6.96.24-.26.61-4.45,1.82-6.48,2.88.15-.08-5.09,4.08-6.64,3.43-1.56-.65-3.7,2.11-6.08,3.29-2.39,1.17-2.01,3.82,1.2,3.36,3.2-.46,4.08-.48,4.08-.48,0,0-3.3,2.02-6,3.36-1.7.83-3.58,3.64-2.4,3.36,4.84-1.19.83,1.82-1.14,2.54.97-.43-5.76.13-5.82,2.98-.03,1.45-1.77,1.35-2.64.48-.57-.57-3.87.57-5.12,2.16-1.19,1.52-3.32,2.06-5.57,3.18,1.11-.65,1.86-1.66,1.09-1.98-.7-.29-3.03.29-4.08-.24-.88-.45-1.74-1.04-2.5-1.67-18-23.31-39.77-51.48-41.33-53.42-2.31-2.66-4.31-3.66-8.31-3.66h-124c-2,0-5,0-6.57,2.34-1.58,2.34-29.43,43.66-29.43,43.66,0,0-16-39-17-42s-2-4-5-4h-14c-5,0-5,2-5.5,4.5-.41,2.84-11.05,72.51-14.29,100.88-.31,2.77,3.28,4.12,4.87,1.83,0,0,4.38-6.12,8.15-9.67,2.82-2.65,8.11-5.55,10.1-6.34.93-.37,1.66-1.17,1.81-2.15,0,0,0-.01,0-.02l6.55-44.01,17.38,41.3c.83,2.02,3.56,2.31,4.79.52l43.49-63.9c.4-.59,1.06-.95,1.77-.95l72.96.05c1.52-.02,2.71,1.33,2.48,2.84l-9.19,60.55c-.2,1.35.85,2.57,2.22,2.57h18.64c1.01,0,1.87-.74,2.02-1.74l9.31-62.37c.25-1.66,1.67-2.89,3.35-2.89h4.08c4,0,8,6,8,6,0,0,37,50,42,56s9.66,5.27,9.66,5.27l25.02-.06,5.58.06h67.68s-7.84-3.89-4.8-5.28c3.03-1.4-6.12-5.22-8.4-6.96-2.29-1.75-5.14-2.23-8.16-.72.38-.66.11-1.49.24-2.4.11-.84.66-1.79.24-1.92-1.6-.52-5.07.45-6,1.68-1.46,1.91-2.66,1.09-3.6-.24-1.74-2.44,1.28-8.03-3.12-5.04-3.03,2.05-4.51-6.06-2.4-5.04,2.11,1.01,4.55-9.16,3.6-4.56-1.72,8.28,5.66-.82,3.6-5.76-.76-1.82-2.84-7.9-.48-6.72,2.36,1.18,4.34-6.46,4.51-5.85-.2,2.59.71,5.6,2.83,4.54,1.29-.64,2.54-5.21,3-7,1.23-4.77,3-3,3-7s3-13,4-9,4.39-7.45,5-11c.72-4.17,2.92-8.92,7-5,1.02.98,2.77,3.17,3.79,4.21.97.96,2.27,1.06,2.41-1.17.08-4.15.33-11.28,1.19-18.28.96-7.82,2.42-15.75,3.14-19.5.24-1.34-.43-1.82-1.5-1.15ZM349.85,33.19c-.39.62.12,1.27-.26,2.07-.61,1.29-.55,2.47-1.72,3.13-1.17.66-1.12,1.45-1.55,1.7-.43.26-.25,1.24-.88,1.84-.63.6-.37,1.8-.65,2.69-.18.54-.04,1.65-.64,1.5-.59-.15-.9.58-.92.98-.04.72-.54,1.81-.92,2.89-.4,1.15-.67,2.29-.1,2.96,1.1,1.3-3.25,10.72-3.18,8.67.09-2.94.12-6.1-.48-7.68-.02-.04-.03-.09-.05-.12-.55-1.25-1.19.29-1.57,1.61-.17.61-.28,1.17-.3,1.39-.53,5.54-2.93,4.73-2.83,9.69.09,4.95-2.42.2-2.69-2.25-.53-4.72-3.31,12.8-2.88,5.52.23-3.99-1.78,4.52-1.44,5.52.25.75.03,3.31-.33,5.57-.46,3.02-1.17,5.52-1.29,2.51-.01-.23-.04-.4-.08-.53-.29-.83-1.22.23-1.4,2.01h0c-.01.1-.02.19-.02.28-.24,4.42.48,12.45-1.2,7.2-1.65-5.14-3.07,2.45-1.92,3.12,1.14.67,2.27,8.17,4.32,6.96,2.97-1.76,1.19,7.87,3.36,5.28,1.47-1.78,6.66,4.93,8.54,1.05,1.34-2.77,6.16,5.51,6.76,2.58.6-2.93,4.44.43,5.82-.75,3.09-2.66-.26,3.2,2.02,3.43,1.18.13.91.88.38,1.57-.49.64,1.68,1.24,1.68,1.24,0,0-27.63.08-52,.15-1.69,0-3.36,0-5.01.01-4.32.01-8.46.02-12.24.04-1.66,0-3.25,0-4.76.01-7.95.02-13.49.03-14.31.03-3.42,0-6.82-3.02-8.88-5.28-2.04-2.23-11.92-15.88-12.23-16.31.28.18,12.19,7.95,13.95,3.23,1.78-4.78,11.53,3.2,11.58.54.01-.41.04-.76.1-1.07.05-.34.14-.62.26-.84,1.36-2.76,6.3,2.25,8.9.53,2.05-1.38,5.15-6.71,8.35-5.35,3.2,1.35,4.67-3.12,6.77-4.73,3.22-2.49,5.13-6.39,7.44-5.28.71.34,1.82.13,3.08-.38.65-.27,1.34-.62,2.03-1.02,4.16-2.41,8.43-6.65,4.91-5.51-.23.08-.44.13-.61.17-2.43.53.68-2.42,3.64-4.51,1.58-1.12,3.12-1.99,3.75-1.95,2.16.12,9.24-5.4,9.69-7.31.2-.85,1.36-2.09,2.62-3.4.75-.78-1.55-.35-2.61.6-1.2,1.09-2.53,1.47-2,2,1,1-3,3-4.57,1.53-.9-.84,2.57-3.53,2.43-4.86-.14-1.33,3.16-2.86,4.41-3.62.21-.13.41-.23.59-.3,4.34-1.71,5.28-3.37,6.24-4.56,1.5-1.87,3.84-4.99,5.28-5.52.99-.37,3.33-3.92,4.32-4.28.68-.25.65-2.66,1.52-2.6.87.06.73-1.38,1.36-2.2.76-1,1.85-1.7,2.42-2.59.72-1.12,1.55-1.87,1.65-1.96-.07.15-.79,1.59-1.65,2.96Z"/>
        <path class="cls-3" d="M318.81,77.27c-1.62-1.09-7.71,7.54-5.39,6.19,2.32-1.36-2.04,2.96-2.39,3.39-.7.84-10.27,6.42-12.17,5.59-1.55-.68-1.42,1.07-2.99,2.59-2.17,2.1-2.14,2.85-3.19,4.39-1.65,2.43-9.28,2.31-8.38,4.99.89,2.68-13.07-2.01-8.18.6,1.65.88-9.57-.98-6.03.77,3.54,1.74-2.91,1.74-5.35.23-1.17-.73-3.39-2.06-3.8-1.42-.41.64-2.43-.3-2.79-.17-.5.17,4.89,3.77,4.72,5.05-.17,1.28,4.05,2.93,4.86,3.54,1.84,1.36,4.88.62,6.39,1,3.77.95,9.1.19,11.38-.6,2.28-.79,11.22.97,13.17.4,2.03-.59,14.87.83,15.77.2.9-.63,6.16,1.29,7.98.6.83-.31,7.03.6,8.31-.2.42-.26,2.33.35,3.66.4,2.72.11,5.35-.03,4.19-.2-.23-.03-.74-1.91-2-1.4-1.26.51-2.59.28-3.39,0-1.36-.47-2.65-1.29-3.38-.7-1.74,1.4-5.93-1.97-6.89-1.35-.73.47-5.68,2-4.95-.52.73-2.52-1.67-2.97-1.94-2.62-.98,1.3-4.36-.71-3.19-2.99,2.42-4.75-4.47-8.37-2.42-9.68,1.92-1.22,2.6-4.4,3.41-7.28.33-1.18,2.22-1.43,2.4-3.79.17-2.36,4.21-5.89,2.59-6.99Z"/>
      </g>
    </g>
  </g>
</svg>